<svg xmlns="http://www.w3.org/2000/svg" width="34.336" height="27.414" viewBox="0 0 34.336 27.414">
  <g id="Group_360" data-name="Group 360" transform="translate(-298.605 -1086.896)">
    <g id="Group_354" data-name="Group 354" transform="translate(302.521 1086.896)">
      <path id="Path_158" data-name="Path 158" d="M306.893,1094.36a.991.991,0,0,1-.991-.99v-3.337a3.14,3.14,0,0,1,3.137-3.136h11.055a5.368,5.368,0,0,1,4.132,2.273l.231.366a3.4,3.4,0,0,0,2.458,1.353h8.416a.99.99,0,1,1,0,1.981h-8.416a5.368,5.368,0,0,1-4.132-2.273l-.231-.366a3.4,3.4,0,0,0-2.458-1.352H309.039a1.158,1.158,0,0,0-1.156,1.156v3.337A.991.991,0,0,1,306.893,1094.36Z" transform="translate(-305.902 -1086.896)" fill="#44444d"/>
    </g>
    <g id="Group_355" data-name="Group 355" transform="translate(302.521 1093.899)">
      <path id="Path_159" data-name="Path 159" d="M333.186,1120.357H309.039a3.14,3.14,0,0,1-3.137-3.136v-2.861a.991.991,0,0,1,1.981,0v2.861a1.158,1.158,0,0,0,1.156,1.156h24.147a1.157,1.157,0,0,0,1.156-1.156v-16.285a.991.991,0,0,1,1.981,0v16.285A3.14,3.14,0,0,1,333.186,1120.357Z" transform="translate(-305.902 -1099.946)" fill="#44444d"/>
    </g>
    <g id="Group_359" data-name="Group 359" transform="translate(298.605 1095.82)">
      <g id="Group_356" data-name="Group 356">
        <path id="Path_160" data-name="Path 160" d="M298.6,1103.731a18.187,18.187,0,0,1,3.006-.2,4.719,4.719,0,0,1,3.006.788,2.874,2.874,0,0,1,1.05,2.276,3.142,3.142,0,0,1-.9,2.335,4.557,4.557,0,0,1-3.2,1.036,5.737,5.737,0,0,1-.759-.043v3.516h-2.2Zm2.2,4.465a3.39,3.39,0,0,0,.744.058c1.182,0,1.911-.6,1.911-1.6,0-.905-.627-1.445-1.736-1.445a3.816,3.816,0,0,0-.92.087Z" transform="translate(-298.605 -1103.527)" fill="#44444d"/>
      </g>
      <g id="Group_357" data-name="Group 357" transform="translate(8.476)">
        <path id="Path_161" data-name="Path 161" d="M314.4,1103.731a19.832,19.832,0,0,1,3.005-.2,6.323,6.323,0,0,1,4.027,1.051,4.35,4.35,0,0,1,1.663,3.706,4.987,4.987,0,0,1-1.634,3.983,7.06,7.06,0,0,1-4.538,1.27,19.148,19.148,0,0,1-2.524-.146Zm2.233,8.025a4.07,4.07,0,0,0,.773.044c2.014.015,3.327-1.095,3.327-3.444a2.82,2.82,0,0,0-3.093-3.122,4.6,4.6,0,0,0-1.007.088Z" transform="translate(-314.401 -1103.527)" fill="#44444d"/>
      </g>
      <g id="Group_358" data-name="Group 358" transform="translate(18.629 0.073)">
        <path id="Path_162" data-name="Path 162" d="M333.323,1103.663h6.011v1.825h-3.779v2.247h3.531v1.809h-3.531v3.954h-2.233Z" transform="translate(-333.323 -1103.663)" fill="#44444d"/>
      </g>
    </g>
  </g>
</svg>
