<svg xmlns="http://www.w3.org/2000/svg" width="25.894" height="32.871" viewBox="0 0 25.894 32.871">
  <g id="Group_368" data-name="Group 368" transform="translate(-201.039 -223.109)">
    <g id="Group_361" data-name="Group 361" transform="translate(201.039 230.719)">
      <path id="Path_164" data-name="Path 164" d="M225.882,261.727H202.091a1.051,1.051,0,0,1-1.052-1.052V237.518a1.052,1.052,0,0,1,1.052-1.052h4.395a1.052,1.052,0,0,1,0,2.1h-3.343v21.053h21.687V238.57h-3.342a1.052,1.052,0,0,1,0-2.1h4.394a1.052,1.052,0,0,1,1.052,1.052v23.157A1.052,1.052,0,0,1,225.882,261.727Z" transform="translate(-201.039 -236.466)" fill="#44444d"/>
    </g>
    <g id="Group_362" data-name="Group 362" transform="translate(204.649 223.109)">
      <path id="Path_165" data-name="Path 165" d="M225,230.122a1.053,1.053,0,0,1-1.045-.941.593.593,0,0,0-.626-.562c-.562-.025-1.051-.016-1.619-.005-.537.009-1.133.021-1.907.006a1.052,1.052,0,0,1-1.033-1.051c0-.387-.357-2.355-2.055-2.355s-2.054,1.968-2.054,2.355a1.051,1.051,0,0,1-1.033,1.051c-.774.014-1.37,0-1.907-.006-.569-.011-1.058-.02-1.619.005a.593.593,0,0,0-.626.562,1.052,1.052,0,0,1-2.092-.223,2.7,2.7,0,0,1,2.627-2.441c.624-.027,1.17-.017,1.747-.007.286.005.59.011.931.012a4.081,4.081,0,0,1,8.052,0c.341,0,.644-.007.931-.012.578-.01,1.124-.021,1.748.007a2.7,2.7,0,0,1,2.627,2.441,1.052,1.052,0,0,1-.935,1.157A1.068,1.068,0,0,1,225,230.122Z" transform="translate(-207.374 -223.109)" fill="#44444d"/>
    </g>
    <g id="Group_363" data-name="Group 363" transform="translate(205.433 230.719)">
      <path id="Path_166" data-name="Path 166" d="M222.683,241.92H211.926a1.053,1.053,0,0,1-.889-.489l-2.122-3.35a1.052,1.052,0,0,1,1.777-1.126l1.812,2.861h9.6l1.814-2.861a1.052,1.052,0,1,1,1.777,1.126l-2.123,3.35A1.052,1.052,0,0,1,222.683,241.92Z" transform="translate(-208.752 -236.466)" fill="#44444d"/>
    </g>
    <g id="Group_364" data-name="Group 364" transform="translate(205.688 239.559)">
      <path id="Path_167" data-name="Path 167" d="M224.743,254.085H210.25a1.052,1.052,0,0,1,0-2.1h14.493a1.052,1.052,0,1,1,0,2.1Z" transform="translate(-209.198 -251.981)" fill="#44444d"/>
    </g>
    <g id="Group_365" data-name="Group 365" transform="translate(205.688 244.121)">
      <path id="Path_168" data-name="Path 168" d="M216.285,262.091H210.25a1.052,1.052,0,1,1,0-2.1h6.035a1.052,1.052,0,1,1,0,2.1Z" transform="translate(-209.198 -259.987)" fill="#44444d"/>
    </g>
    <g id="Group_366" data-name="Group 366" transform="translate(205.688 248.682)">
      <path id="Path_169" data-name="Path 169" d="M216.285,270.1H210.25a1.052,1.052,0,1,1,0-2.1h6.035a1.052,1.052,0,1,1,0,2.1Z" transform="translate(-209.198 -267.992)" fill="#44444d"/>
    </g>
    <g id="Group_367" data-name="Group 367" transform="translate(214.511 243.364)">
      <path id="Path_170" data-name="Path 170" d="M229.18,267.652a4.5,4.5,0,1,1,4.5-4.5A4.5,4.5,0,0,1,229.18,267.652Zm0-6.891a2.393,2.393,0,1,0,2.393,2.394A2.4,2.4,0,0,0,229.18,260.762Z" transform="translate(-224.683 -258.658)" fill="#44444d"/>
    </g>
  </g>
</svg>
