<svg xmlns="http://www.w3.org/2000/svg" width="29.894" height="29.893" viewBox="0 0 29.894 29.893">
  <g id="Group_372" data-name="Group 372" transform="translate(-84.42 -776.585)">
    <g id="Group_370" data-name="Group 370" transform="translate(84.42 776.585)">
      <g id="Group_369" data-name="Group 369">
        <path id="Path_171" data-name="Path 171" d="M100,806.478H98.89a2.43,2.43,0,0,1-2.68-2.144V803.2a1.643,1.643,0,0,0-1.1-1.336,1.47,1.47,0,0,0-1.642.252l-.932.943c-.8.792-2.214.57-3.291-.508l-.789-.788a2.961,2.961,0,0,1-.918-2.045,1.91,1.91,0,0,1,.542-1.367l.8-.8a1.639,1.639,0,0,0,.17-1.72,1.47,1.47,0,0,0-1.332-.981h-.007l-1.327.006c-1.126-.006-1.968-1.16-1.968-2.685v-1.117a2.431,2.431,0,0,1,2.147-2.679H87.7a1.621,1.621,0,0,0,1.338-1.1,1.469,1.469,0,0,0-.253-1.64l-.942-.934c-.792-.8-.571-2.213.507-3.291l.788-.788a3.119,3.119,0,0,1,1.611-.878,1.993,1.993,0,0,1,1.8.5l.8.8a1.644,1.644,0,0,0,1.722.17,1.469,1.469,0,0,0,.98-1.338l-.007-1.326c.006-1.126,1.16-1.968,2.685-1.968h1.115a2.43,2.43,0,0,1,2.68,2.145v1.132a1.644,1.644,0,0,0,1.1,1.338,1.469,1.469,0,0,0,1.641-.253l.932-.942L106.2,780c.793-.785,2.205-.563,3.283.515l.789.789a2.96,2.96,0,0,1,.918,2.045,1.912,1.912,0,0,1-.543,1.368l-.8.8a1.641,1.641,0,0,0-.171,1.721,1.471,1.471,0,0,0,1.331.981h.007l1.327-.006c1.126.006,1.969,1.16,1.969,2.684v1.117a2.431,2.431,0,0,1-2.147,2.679h-1.131a1.621,1.621,0,0,0-1.337,1.1,1.471,1.471,0,0,0,.253,1.642l.942.933c.792.8.57,2.213-.508,3.29l-.788.788a2.434,2.434,0,0,1-3.411.379l-.8-.8a1.643,1.643,0,0,0-1.722-.172,1.469,1.469,0,0,0-.98,1.338l.007,1.327C102.684,805.637,101.529,806.478,100,806.478Zm-5.571-6.67a3.7,3.7,0,0,1,1.408.287,3.509,3.509,0,0,1,2.282,3.105v1.134a1.212,1.212,0,0,0,.767.232H100a1.455,1.455,0,0,0,.771-.187l-.006-1.187a3.351,3.351,0,0,1,2.158-3.113,3.508,3.508,0,0,1,3.81.585l.8.8a1.22,1.22,0,0,0,.707-.379l.788-.788a1.458,1.458,0,0,0,.414-.677l-.843-.834a3.355,3.355,0,0,1-.675-3.729,3.509,3.509,0,0,1,3.106-2.28h1.131a1.194,1.194,0,0,0,.233-.766v-1.117a1.456,1.456,0,0,0-.186-.771l-1.187.006h-.016a3.351,3.351,0,0,1-3.1-2.158,3.507,3.507,0,0,1,.584-3.809l.8-.8a1.18,1.18,0,0,0-.375-.707l-.789-.789a1.455,1.455,0,0,0-.678-.414l-.834.842a3.353,3.353,0,0,1-3.728.675,3.51,3.51,0,0,1-2.283-3.107V778.73a1.207,1.207,0,0,0-.767-.232H98.729a1.451,1.451,0,0,0-.772.187l.006,1.187a3.352,3.352,0,0,1-2.157,3.113A3.509,3.509,0,0,1,92,782.4l-.8-.8a1.205,1.205,0,0,0-.707.376l-.788.788a1.444,1.444,0,0,0-.413.678l.842.836a3.351,3.351,0,0,1,.675,3.726,3.509,3.509,0,0,1-3.107,2.28H86.567a1.2,1.2,0,0,0-.233.767v1.117a1.452,1.452,0,0,0,.187.771l1.186,0h.016a3.351,3.351,0,0,1,3.1,2.158,3.507,3.507,0,0,1-.583,3.809l-.8.8a1.194,1.194,0,0,0,.377.705l.789.789a1.46,1.46,0,0,0,.678.414l.834-.843A3.236,3.236,0,0,1,94.434,799.809Z" transform="translate(-84.42 -776.585)" fill="#44444d"/>
      </g>
    </g>
    <g id="Group_371" data-name="Group 371" transform="translate(92.619 784.783)">
      <path id="Path_172" data-name="Path 172" d="M106.992,805.9a6.746,6.746,0,1,1,6.054-3.764.956.956,0,0,1-1.716-.846,4.837,4.837,0,1,0-1.86,2.015.957.957,0,0,1,.982,1.642A6.736,6.736,0,0,1,106.992,805.9Z" transform="translate(-100.244 -792.406)" fill="#44444d"/>
    </g>
  </g>
</svg>
