<svg xmlns="http://www.w3.org/2000/svg" width="16.594" height="20.075" viewBox="0 0 16.594 20.075">
  <g id="Group_153" data-name="Group 153" transform="translate(-752.396 -553.595)">
    <path id="Path_65" data-name="Path 65" d="M768.118,568.685a.643.643,0,1,0,.638,1.115c1.515-.868,3.587-2.329,4.07-4.984a4.9,4.9,0,0,0-1.066-3.791,3.894,3.894,0,0,0-3.083-1.429,3.781,3.781,0,0,0-3.254,1.685,4.726,4.726,0,0,0-.357,4.387.642.642,0,0,0,1.187-.492,3.476,3.476,0,0,1,.238-3.182,2.492,2.492,0,0,1,2.185-1.114,2.613,2.613,0,0,1,2.1.967,3.649,3.649,0,0,1,.789,2.738C771.267,566.206,770.173,567.509,768.118,568.685Z" transform="translate(-8.016 -3.913)" fill="#1c1475"/>
    <path id="Path_66" data-name="Path 66" d="M768.456,587.438c-.716-1.869-3.786-3.047-4.134-3.175a.643.643,0,0,0-.806.334c-.018.039-1.578,3.422-2.816,5.42-1.238-2-2.8-5.381-2.815-5.42a.644.644,0,0,0-.806-.334c-.348.128-3.419,1.306-4.135,3.174a8.315,8.315,0,0,0-.407,3.272c0,.2.007.389.007.581a.642.642,0,1,0,1.285,0c0-.2,0-.4-.007-.6a7.091,7.091,0,0,1,.322-2.789c.354-.923,1.864-1.767,2.835-2.2a45.2,45.2,0,0,0,3.2,5.86.666.666,0,0,0,1.032,0,45.128,45.128,0,0,0,3.2-5.859c.955.432,2.484,1.286,2.836,2.2a15.738,15.738,0,0,1,.445,4.459H753.038a.642.642,0,1,0,0,1.284h15.309a.642.642,0,0,0,.642-.642A19.7,19.7,0,0,0,768.456,587.438Z" transform="translate(0 -19.971)" fill="#1c1475"/>
    <path id="Path_67" data-name="Path 67" d="M756.473,562.274a2.489,2.489,0,0,0,1.088,1.432,2.574,2.574,0,0,0,1.328.338,5.318,5.318,0,0,0,1.987-.467.868.868,0,1,0-.5-1.18,2.6,2.6,0,0,1-2.16.206,1.378,1.378,0,0,1-.58-.973.642.642,0,0,0-.641-.594,1.1,1.1,0,0,1-.845-.309,1.071,1.071,0,0,1-.254-.73,1.274,1.274,0,0,1,1.248-1.328.645.645,0,0,0,.629-.512,4.215,4.215,0,0,1,4.206-3.278,4.357,4.357,0,0,1,4.452,3.157.642.642,0,0,0,.626.5,1.367,1.367,0,0,1,1.369,1.418,1.1,1.1,0,0,1-.269.758,1.187,1.187,0,0,1-.907.326.642.642,0,0,0,0,1.284,2.421,2.421,0,0,0,1.847-.734,2.377,2.377,0,0,0,.614-1.633,2.672,2.672,0,0,0-2.164-2.66,5.683,5.683,0,0,0-5.568-3.7,5.46,5.46,0,0,0-5.341,3.836A2.58,2.58,0,0,0,754.615,560a2.35,2.35,0,0,0,.591,1.6A2.216,2.216,0,0,0,756.473,562.274Z" transform="translate(-1.447)" fill="#1c1475"/>
  </g>
</svg>
