<svg xmlns="http://www.w3.org/2000/svg" width="24" height="21.096" viewBox="0 0 24 21.096">
  <g id="Group_775" data-name="Group 775" transform="translate(-1467 -9)">
    <g id="Group_180" data-name="Group 180" transform="translate(1379.921 -212.109)">
      <g id="Group_150" data-name="Group 150" transform="translate(91.299 222.109)">
        <path id="Path_63" data-name="Path 63" d="M103.775,233.716a.643.643,0,0,1-.32-1.2c2.452-1.4,3.759-2.961,4.115-4.908a3.944,3.944,0,0,0-.789-3.065,3.363,3.363,0,0,0-2.724-1.146,3.325,3.325,0,0,0-3.494,2.713,4.281,4.281,0,0,0,2.475,4.763.643.643,0,0,1-.518,1.177,5.575,5.575,0,0,1-3.216-6.2,4.962,4.962,0,0,1,8.465-2.127,5.233,5.233,0,0,1,1.066,4.12c-.563,3.086-2.976,4.785-4.742,5.795A.641.641,0,0,1,103.775,233.716Z" transform="translate(-99.194 -222.109)" fill="#1c1475"/>
      </g>
      <g id="Group_151" data-name="Group 151" transform="translate(87.079 231.639)">
        <path id="Path_64" data-name="Path 64" d="M104.68,260.035H87.722a.643.643,0,1,1,0-1.286h16.313a19.051,19.051,0,0,0-.5-5.3c-.407-1.063-2.156-2.027-3.237-2.506a50.44,50.44,0,0,1-3.572,6.539.666.666,0,0,1-1.034,0,50.308,50.308,0,0,1-3.572-6.539c-1.082.479-2.831,1.443-3.238,2.506a9.185,9.185,0,0,0-.361,3.381c0,.232.008.457.008.674a.643.643,0,1,1-1.286,0c0-.209,0-.427-.008-.652a10.164,10.164,0,0,1,.447-3.863c.782-2.042,4.157-3.336,4.54-3.476a.643.643,0,0,1,.807.335c.02.044,1.8,3.9,3.181,6.1,1.384-2.2,3.162-6.059,3.181-6.1a.643.643,0,0,1,.807-.335c.382.141,3.757,1.435,4.539,3.476.526,1.372.587,4.313.587,6.407A.643.643,0,0,1,104.68,260.035Z" transform="translate(-87.079 -249.469)" fill="#1c1475"/>
      </g>
    </g>
    <text id="_" data-name="+" transform="translate(1482 22)" fill="#171717" font-size="12" font-family="SegoeUI, Segoe UI"><tspan x="0" y="0">+</tspan></text>
  </g>
</svg>
