<svg xmlns="http://www.w3.org/2000/svg" width="26.497" height="32.056" viewBox="0 0 26.497 32.056">
  <g id="Group_267" data-name="Group 267" transform="translate(-752.396 -553.595)">
    <path id="Path_65" data-name="Path 65" d="M770.163,574.11a1.026,1.026,0,1,0,1.019,1.781c2.42-1.386,5.727-3.718,6.5-7.959a7.817,7.817,0,0,0-1.7-6.053,6.218,6.218,0,0,0-4.923-2.282,6.038,6.038,0,0,0-5.2,2.69,7.545,7.545,0,0,0-.57,7.005,1.026,1.026,0,0,0,1.9-.786,5.55,5.55,0,0,1,.38-5.08,3.98,3.98,0,0,1,3.49-1.779,4.173,4.173,0,0,1,3.347,1.545,5.826,5.826,0,0,1,1.26,4.372C775.192,570.151,773.445,572.231,770.163,574.11Z" transform="translate(-5.463 -2.667)" fill="#fff"/>
    <path id="Path_66" data-name="Path 66" d="M778.041,589.356c-1.143-2.984-6.046-4.865-6.6-5.069a1.027,1.027,0,0,0-1.286.534c-.028.062-2.519,5.464-4.5,8.654-1.977-3.189-4.467-8.592-4.5-8.654a1.028,1.028,0,0,0-1.287-.534c-.556.2-5.46,2.085-6.6,5.069a13.279,13.279,0,0,0-.65,5.224c.006.312.011.621.011.928a1.026,1.026,0,1,0,2.051,0c0-.319-.006-.641-.012-.966a11.322,11.322,0,0,1,.515-4.453c.565-1.474,2.977-2.822,4.527-3.518a72.168,72.168,0,0,0,5.117,9.358,1.063,1.063,0,0,0,1.649,0,72.061,72.061,0,0,0,5.117-9.356c1.525.691,3.967,2.054,4.528,3.517.435,1.135.673,3.528.711,7.12H753.422a1.026,1.026,0,1,0,0,2.051h24.445a1.025,1.025,0,0,0,1.026-1.026C778.893,595.378,778.805,591.349,778.041,589.356Z" transform="translate(0 -13.61)" fill="#fff"/>
    <path id="Path_67" data-name="Path 67" d="M757.582,567.453a3.975,3.975,0,0,0,1.737,2.286,4.11,4.11,0,0,0,2.121.539,8.492,8.492,0,0,0,3.173-.745,1.387,1.387,0,1,0-.794-1.885c-1.525.633-2.715.751-3.449.328a2.2,2.2,0,0,1-.927-1.554,1.026,1.026,0,0,0-1.023-.948,1.749,1.749,0,0,1-1.349-.493,1.711,1.711,0,0,1-.405-1.165,2.034,2.034,0,0,1,1.993-2.121,1.029,1.029,0,0,0,1-.817,6.731,6.731,0,0,1,6.716-5.234,6.958,6.958,0,0,1,7.109,5.041,1.025,1.025,0,0,0,1,.8,2.183,2.183,0,0,1,2.186,2.264,1.757,1.757,0,0,1-.429,1.21,1.9,1.9,0,0,1-1.449.52,1.025,1.025,0,0,0,0,2.051,3.866,3.866,0,0,0,2.949-1.172,3.8,3.8,0,0,0,.98-2.608,4.267,4.267,0,0,0-3.455-4.248,9.075,9.075,0,0,0-8.891-5.9,8.719,8.719,0,0,0-8.528,6.125,4.12,4.12,0,0,0-3.237,4.1,3.753,3.753,0,0,0,.944,2.55A3.54,3.54,0,0,0,757.582,567.453Z" transform="translate(-0.986 0)" fill="#fff"/>
  </g>
</svg>
