<svg xmlns="http://www.w3.org/2000/svg" width="28.308" height="21.935" viewBox="0 0 28.308 21.935">
  <g id="Group_269" data-name="Group 269" transform="translate(-636.897 -783.079)">
    <path id="Path_135" data-name="Path 135" d="M664.3,786.18a.906.906,0,0,0-.906.906V803.2H638.709V784.891H664.3a.906.906,0,1,0,0-1.812H637.8a.906.906,0,0,0-.906.906v20.124a.906.906,0,0,0,.906.905h26.5a.905.905,0,0,0,.906-.905V787.085A.906.906,0,0,0,664.3,786.18Z" fill="#fff"/>
    <path id="Path_136" data-name="Path 136" d="M665.117,789.619a.906.906,0,0,0-1.275-.125l-9.555,7.85-9.555-7.85a.906.906,0,1,0-1.15,1.4l10.13,8.322a.907.907,0,0,0,1.15,0l10.13-8.322A.906.906,0,0,0,665.117,789.619Z" transform="translate(-3.236 -3.163)" fill="#fff"/>
    <path id="Path_137" data-name="Path 137" d="M649.126,806.929l-5.6,5.47a.906.906,0,0,0,1.266,1.3l5.6-5.469a.906.906,0,0,0-1.266-1.3Z" transform="translate(-3.236 -12.016)" fill="#fff"/>
    <path id="Path_138" data-name="Path 138" d="M674.517,806.93a.906.906,0,0,0-1.266,1.3l5.6,5.469a.906.906,0,1,0,1.266-1.3Z" transform="translate(-18.377 -12.017)" fill="#fff"/>
  </g>
</svg>
