<svg xmlns="http://www.w3.org/2000/svg" width="42.981" height="8.999" viewBox="0 0 42.981 8.999">
  <path id="ppl" d="M30.59,9,33.066.014h4.562L35.787,6.736h7.194L42.361,9ZM15.28,8.982,17.757,0H26.72a4.128,4.128,0,0,1,3.306,1.311,1.813,1.813,0,0,1,.364,1.522C29.965,4.8,27.316,5.68,24.88,5.68H20.734l-.877,3.3Zm5.931-4.99H24.4a2.039,2.039,0,0,0,1.443-.565,1.11,1.11,0,0,0,.3-.835c-.023-.59-.41-.876-1.179-.876h-3.12ZM0,8.982,2.473,0h8.964a4.133,4.133,0,0,1,3.307,1.309,1.811,1.811,0,0,1,.364,1.525C14.682,4.8,12.033,5.683,9.6,5.683H5.453l-.879,3.3Zm5.925-4.99h3.2a2.036,2.036,0,0,0,1.443-.565,1.127,1.127,0,0,0,.3-.835c-.026-.588-.412-.873-1.181-.873H6.561Z" fill="#8c8c8c"/>
</svg>
