<svg xmlns="http://www.w3.org/2000/svg" width="21.723" height="21.723" viewBox="0 0 21.723 21.723">
  <g id="Group_639" data-name="Group 639" transform="translate(-207.714 -843.491)">
    <path id="Union_9" data-name="Union 9" d="M2.75,20.725A2.75,2.75,0,0,1,0,17.979V12.433A2.75,2.75,0,0,1,2.75,9.685H15.74V1.329H9.318v3.25a.664.664,0,0,1-.664.663H4.325a.662.662,0,0,1-.444-1.155L8.207.176a.349.349,0,0,1,.036-.03h0A.683.683,0,0,1,8.4.051h0A.69.69,0,0,1,8.616,0H16.4a.664.664,0,0,1,.664.663V9.685h.912a2.75,2.75,0,0,1,2.746,2.748.663.663,0,0,1-1.326,0,1.422,1.422,0,0,0-1.42-1.421H16.463l-.06,0-.06,0H2.75a1.422,1.422,0,0,0-1.42,1.421v5.547A1.422,1.422,0,0,0,2.75,19.4h15.23a1.421,1.421,0,0,0,1.42-1.419v-3.7a.663.663,0,1,1,1.326,0v3.7a2.749,2.749,0,0,1-2.746,2.746Zm3.3-16.809H7.99V2.159ZM3.326,18.249a.662.662,0,0,1-.661-.663V13.83a.663.663,0,1,1,1.327,0v.377H15.677a.663.663,0,1,1,0,1.327H3.991v1.389H16.74V13.83a.663.663,0,0,1,1.327,0v3.756a.663.663,0,0,1-.663.663Zm11.5-5.223a.664.664,0,0,1,0-1.327h.9a.664.664,0,1,1,0,1.327ZM6.541,9.008a.663.663,0,1,1,0-1.327h7.647a.663.663,0,1,1,0,1.327Zm0-1.884a.663.663,0,1,1,0-1.327h7.647a.663.663,0,1,1,0,1.327Zm3.783-1.882a.663.663,0,1,1,0-1.327h3.866a.663.663,0,0,1,0,1.327Z" transform="translate(208.211 843.988)" fill="#44444d" stroke="rgba(0,0,0,0)" stroke-miterlimit="10" stroke-width="1"/>
    <g id="Group_628" data-name="Group 628" transform="translate(211.873 849.708)">
      <g id="Group_623" data-name="Group 623" transform="translate(0 0)">
        <path id="Path_295" data-name="Path 295" d="M211.646,853.61a.663.663,0,0,1-.663-.663v-3.967a.663.663,0,1,1,1.327,0v3.967A.662.662,0,0,1,211.646,853.61Z" transform="translate(-210.983 -848.316)" fill="#44444d"/>
      </g>
    </g>
  </g>
</svg>
