<svg xmlns="http://www.w3.org/2000/svg" xmlns:xlink="http://www.w3.org/1999/xlink" width="33.557" height="33.557" viewBox="0 0 33.557 33.557">
  <defs>
    <linearGradient id="linear-gradient" y1="0.5" x2="1" y2="0.5" gradientUnits="objectBoundingBox">
      <stop offset="0" stop-color="#d9261c"/>
      <stop offset="1" stop-color="#1c1475"/>
    </linearGradient>
  </defs>
  <g id="Group_265" data-name="Group 265" transform="translate(-746.894 -776.085)">
    <path id="Union_6" data-name="Union 6" d="M-226.327,314.142a16.3,16.3,0,0,1-16.278-16.278,16.3,16.3,0,0,1,16.278-16.279,16.3,16.3,0,0,1,16.278,16.279,16.3,16.3,0,0,1-16.278,16.278Zm1.041-3.741v1.621a14.219,14.219,0,0,0,13.117-13.117h-1.621a1.041,1.041,0,0,1-1.041-1.041,1.041,1.041,0,0,1,1.041-1.042h1.621a14.219,14.219,0,0,0-13.116-13.116v1.62a1.042,1.042,0,0,1-1.041,1.042,1.042,1.042,0,0,1-1.041-1.042v-1.62a14.219,14.219,0,0,0-13.116,13.116h1.62a1.042,1.042,0,0,1,1.042,1.042,1.041,1.041,0,0,1-1.042,1.041h-1.62a14.219,14.219,0,0,0,13.117,13.117V310.4a1.041,1.041,0,0,1,1.041-1.041A1.041,1.041,0,0,1-225.286,310.4Zm3.676-6.347-5.454-5.454a1.042,1.042,0,0,1-.3-.736v-8.839a1.041,1.041,0,0,1,1.041-1.041,1.041,1.041,0,0,1,1.041,1.041v8.407l5.149,5.149a1.042,1.042,0,0,1,0,1.473,1.037,1.037,0,0,1-.737.3A1.037,1.037,0,0,1-221.61,304.054Z" transform="translate(990 495)" stroke="rgba(0,0,0,0)" stroke-width="1" fill="url(#linear-gradient)"/>
  </g>
</svg>
