<svg xmlns="http://www.w3.org/2000/svg" xmlns:xlink="http://www.w3.org/1999/xlink" width="44.454" height="32.568" viewBox="0 0 44.454 32.568">
  <defs>
    <linearGradient id="linear-gradient" y1="0.55" x2="1" y2="0.544" gradientUnits="objectBoundingBox">
      <stop offset="0" stop-color="#d9261c"/>
      <stop offset="1" stop-color="#1c1475"/>
    </linearGradient>
  </defs>
  <g id="Group_266" data-name="Group 266" transform="translate(-857.389 -560.984)">
    <path id="Union_7" data-name="Union 7" d="M-454.048,97.709a1.39,1.39,0,0,1-1.391-1.39,1.391,1.391,0,0,1,1.391-1.39h19.855c-.051-4.469-.35-6.324-.606-7.09-.379-1.135-1.938-2.3-3.3-3.067a6.352,6.352,0,0,1-5.369,3.1h0a6.3,6.3,0,0,1-5.323-3.1c-1.364.762-2.923,1.931-3.3,3.066a9.72,9.72,0,0,0-.44,3.719c.005.3.01.614.01.946a1.39,1.39,0,0,1-1.391,1.391,1.391,1.391,0,0,1-1.39-1.391c0-.315,0-.612-.01-.9a12.381,12.381,0,0,1,.582-4.647c1.05-3.147,5.505-5.107,6.01-5.321a1.379,1.379,0,0,1,1.076,0,1.387,1.387,0,0,1,.755.767,3.8,3.8,0,0,0,3.422,2.689A3.879,3.879,0,0,0-440,82.4a1.389,1.389,0,0,1,.756-.767,1.379,1.379,0,0,1,1.076,0c.5.213,4.96,2.174,6.011,5.32.644,1.938.747,5.9.756,8.906a1.389,1.389,0,0,1,.076.455,1.389,1.389,0,0,1-1.39,1.39Zm25.507-1.324A1.389,1.389,0,0,1-429.931,95a1.389,1.389,0,0,1,1.39-1.391h4.017a30.4,30.4,0,0,0-.378-3.118,4.488,4.488,0,0,0-1.8-2.928,1.389,1.389,0,0,1-.328-1.939,1.391,1.391,0,0,1,1.939-.329,7.3,7.3,0,0,1,2.92,4.682,39.73,39.73,0,0,1,.512,4.969,1.388,1.388,0,0,1-.388,1.016,1.389,1.389,0,0,1-1,.427Zm-35.18,0a1.389,1.389,0,0,1-1-.426,1.388,1.388,0,0,1-.388-1.016,39.515,39.515,0,0,1,.513-4.973,7.2,7.2,0,0,1,2.776-4.572,1.388,1.388,0,0,1,1.945.282,1.39,1.39,0,0,1-.282,1.946,4.473,4.473,0,0,0-1.706,2.856,30.2,30.2,0,0,0-.381,3.122h4.018A1.39,1.39,0,0,1-456.836,95a1.39,1.39,0,0,1-1.391,1.391Zm32.034-11.811a1.39,1.39,0,0,1,1.39-1.39c1.929,0,3.5-2.017,3.5-4.5s-1.57-4.495-3.5-4.495a3.113,3.113,0,0,0-2.552,1.488,4.14,4.14,0,0,0-.08,4.127,1.388,1.388,0,0,1-.68,1.844,1.387,1.387,0,0,1-1.844-.68,6.964,6.964,0,0,1,.261-6.79,5.834,5.834,0,0,1,4.9-2.771c3.461,0,6.278,3.263,6.278,7.276s-2.817,7.278-6.278,7.278A1.389,1.389,0,0,1-431.688,84.575Zm-31.062-5.888c0-4.012,2.817-7.276,6.277-7.276a5.838,5.838,0,0,1,4.9,2.77,6.977,6.977,0,0,1,.265,6.79,1.392,1.392,0,0,1-1.845.68,1.39,1.39,0,0,1-.681-1.844,4.144,4.144,0,0,0-.08-4.128,3.116,3.116,0,0,0-2.556-1.488c-1.928,0-3.5,2.017-3.5,4.495s1.569,4.5,3.5,4.5a1.39,1.39,0,0,1,1.391,1.39,1.39,1.39,0,0,1-1.391,1.391C-459.932,85.965-462.749,82.7-462.749,78.687Zm17.727,4.513a1.391,1.391,0,0,1,.4-1.927c1.86-1.224,4.4-3.26,4.962-6.785a5.851,5.851,0,0,0-1.111-4.388,3.384,3.384,0,0,0-2.734-1.177,3.661,3.661,0,0,0-3.565,2.582,6.323,6.323,0,0,0,1.637,6.734,1.392,1.392,0,0,1,.163,1.959,1.393,1.393,0,0,1-1.961.163,9.1,9.1,0,0,1-2.45-9.814,6.4,6.4,0,0,1,6.176-4.406,6.174,6.174,0,0,1,4.848,2.151,8.589,8.589,0,0,1,1.742,6.63c-.736,4.614-3.879,7.16-6.178,8.673a1.38,1.38,0,0,1-.763.23A1.39,1.39,0,0,1-445.022,83.2Z" transform="translate(1323 495.343)" stroke="rgba(0,0,0,0)" stroke-width="1" fill="url(#linear-gradient)"/>
  </g>
</svg>
