<svg xmlns="http://www.w3.org/2000/svg" width="20.079" height="20.079" viewBox="0 0 20.079 20.079">
  <g id="Group_158" data-name="Group 158" transform="translate(0 20.079) rotate(-90)">
    <g id="Group_157" data-name="Group 157" transform="translate(0)">
      <g id="Group_155" data-name="Group 155" transform="translate(4.303)">
        <g id="Group_154" data-name="Group 154">
          <path id="Path_68" data-name="Path 68" d="M7.886,15.776a7.884,7.884,0,1,1,5.578-2.307h0A7.864,7.864,0,0,1,7.886,15.776Zm0-14.491a6.6,6.6,0,1,0,4.67,11.275h0A6.6,6.6,0,0,0,7.886,1.285Z" fill="#a80e06"/>
        </g>
      </g>
      <g id="Group_156" data-name="Group 156" transform="translate(0 12.378)">
        <path id="Path_69" data-name="Path 69" d="M2.476,7.7A2.407,2.407,0,0,1,.76,6.993L.708,6.94a2.432,2.432,0,0,1,0-3.431L4.03.188a.642.642,0,0,1,.909.908L1.617,4.418a1.147,1.147,0,0,0,0,1.614l.053.053a1.175,1.175,0,0,0,1.614,0L6.6,2.763a.643.643,0,0,1,.909.909L4.192,6.993A2.408,2.408,0,0,1,2.476,7.7Z" fill="#a80e06"/>
      </g>
    </g>
  </g>
</svg>
