<svg xmlns="http://www.w3.org/2000/svg" width="20.578" height="17.231" viewBox="0 0 20.578 17.231">
  <g id="Group_511" data-name="Group 511" transform="translate(-382.499 -312.5)">
    <g id="Group_505" data-name="Group 505" transform="translate(383 313)">
      <path id="Path_222" data-name="Path 222" d="M880.311,795.175v-2.856a5.516,5.516,0,0,0-1.184-3.15s-3.716-4.778-4.037-5.1c-.788-.788-1.236-1.024-2.881-1.024h-9.375a1.963,1.963,0,0,0-2.1,1.984l-.006,10.145" transform="translate(-860.734 -783.045)" fill="none" stroke="#171717" stroke-linecap="round" stroke-linejoin="round" stroke-width="1"/>
      <line id="Line_77" data-name="Line 77" x1="2.008" transform="translate(17.569 13.959)" fill="none" stroke="#171717" stroke-linecap="round" stroke-linejoin="round" stroke-width="1"/>
      <path id="Path_223" data-name="Path 223" d="M896.654,817.549a2.273,2.273,0,1,0,2.273-2.274A2.273,2.273,0,0,0,896.654,817.549Z" transform="translate(-883.631 -803.59)" fill="none" stroke="#171717" stroke-linecap="round" stroke-linejoin="round" stroke-width="1"/>
      <path id="Path_224" data-name="Path 224" d="M865.477,817.549a2.273,2.273,0,1,0,2.273-2.274A2.273,2.273,0,0,0,865.477,817.549Z" transform="translate(-863.757 -803.59)" fill="none" stroke="#171717" stroke-linecap="round" stroke-linejoin="round" stroke-width="1"/>
      <line id="Line_78" data-name="Line 78" x1="6.756" transform="translate(6.266 13.959)" fill="none" stroke="#171717" stroke-linecap="round" stroke-linejoin="round" stroke-width="1"/>
      <line id="Line_79" data-name="Line 79" x1="1.719" transform="translate(0 13.959)" fill="none" stroke="#171717" stroke-linecap="round" stroke-linejoin="round" stroke-width="1"/>
      <path id="Path_225" data-name="Path 225" d="M898.226,794.388h-5.949V788.1" transform="translate(-880.841 -786.265)" fill="none" stroke="#171717" stroke-linecap="round" stroke-linejoin="round" stroke-width="1"/>
    </g>
  </g>
</svg>
