<svg xmlns="http://www.w3.org/2000/svg" width="23.905" height="17.228" viewBox="0 0 23.905 17.228">
  <g id="Group_521" data-name="Group 521" transform="translate(-638.243 -232.344)">
    <path id="Path_237" data-name="Path 237" d="M663.451,239.46c2.329-1.967,1.722-6.616-1.591-6.616-2.477,0-3.179,2.51-2.939,4.034a6.4,6.4,0,0,0,3.138,4.345" transform="translate(-11.594 0)" fill="none" stroke="#171717" stroke-linecap="round" stroke-linejoin="round" stroke-width="1"/>
    <path id="Path_238" data-name="Path 238" d="M663.6,260.808h-11.97a22.824,22.824,0,0,1,.387-5.015c.5-1.484,2.946-2.52,2.946-2.52a2.777,2.777,0,0,0,5.334,0s2.451,1.035,2.948,2.52a7.59,7.59,0,0,1,.282,2.869" transform="translate(-7.395 -11.736)" fill="none" stroke="#171717" stroke-linecap="round" stroke-linejoin="round" stroke-width="1"/>
    <g id="Group_520" data-name="Group 520" transform="translate(638.743 235.85)">
      <path id="Path_239" data-name="Path 239" d="M646.827,244.109c1.063-2.3-.47-4.265-2.195-4.265a3.365,3.365,0,0,0,0,6.618" transform="translate(-640.549 -239.844)" fill="none" stroke="#171717" stroke-linecap="round" stroke-linejoin="round" stroke-width="1"/>
      <path id="Path_240" data-name="Path 240" d="M640.347,257.931a3.3,3.3,0,0,0-1.328,2.138,22.013,22.013,0,0,0-.276,2.679h3.094" transform="translate(-638.743 -250.272)" fill="none" stroke="#171717" stroke-linecap="round" stroke-linejoin="round" stroke-width="1"/>
      <path id="Path_241" data-name="Path 241" d="M677.468,244.109c-1.062-2.3.47-4.265,2.195-4.265a3.365,3.365,0,0,1,0,6.618" transform="translate(-660.84 -239.844)" fill="none" stroke="#171717" stroke-linecap="round" stroke-linejoin="round" stroke-width="1"/>
      <path id="Path_242" data-name="Path 242" d="M687.005,258.043a3.308,3.308,0,0,1,1.264,2.09,21.9,21.9,0,0,1,.274,2.679H685.45" transform="translate(-665.638 -250.336)" fill="none" stroke="#171717" stroke-linecap="round" stroke-linejoin="round" stroke-width="1"/>
    </g>
  </g>
</svg>
