<svg xmlns="http://www.w3.org/2000/svg" width="17.523" height="17.364" viewBox="0 0 17.523 17.364">
  <g id="Group_539" data-name="Group 539" transform="translate(-419.093 -337.79)">
    <path id="Path_260" data-name="Path 260" d="M445.449,343.966a2.091,2.091,0,0,1,.6-1.678l3.225-3.226a2.1,2.1,0,0,1,2.965,0l.466.466a2.1,2.1,0,0,1,0,2.965l-3.226,3.225a2.094,2.094,0,0,1-1.675.6" transform="translate(-17.363)" fill="none" stroke="#171717" stroke-linecap="round" stroke-linejoin="round" stroke-width="1"/>
    <line id="Line_89" data-name="Line 89" y1="6.191" x2="6.191" transform="translate(424.759 343.457)" fill="none" stroke="#171717" stroke-linecap="round" stroke-linejoin="round" stroke-width="1"/>
    <g id="Group_538" data-name="Group 538" transform="translate(419.753 346.774)">
      <path id="Path_261" data-name="Path 261" d="M425.269,364.146a2.091,2.091,0,0,0-1.678.6l-3.226,3.226a2.1,2.1,0,0,0,0,2.965l.465.465a2.1,2.1,0,0,0,2.965,0l3.226-3.227a2.089,2.089,0,0,0,.6-1.674" transform="translate(-419.753 -364.137)" fill="none" stroke="#171717" stroke-linecap="round" stroke-linejoin="round" stroke-width="1"/>
    </g>
  </g>
</svg>
