<svg xmlns="http://www.w3.org/2000/svg" width="17.251" height="17.356" viewBox="0 0 17.251 17.356">
  <g id="Group_532" data-name="Group 532" transform="translate(-306.758 -225.456)">
    <g id="Group_530" data-name="Group 530" transform="translate(310.975 225.956)">
      <path id="Path_254" data-name="Path 254" d="M330.308,236.654a6.267,6.267,0,1,1,0-8.863A6.265,6.265,0,0,1,330.308,236.654Z" transform="translate(-319.61 -225.956)" fill="none" stroke="#171717" stroke-linecap="round" stroke-linejoin="round" stroke-width="1"/>
    </g>
    <g id="Group_531" data-name="Group 531" transform="translate(313.424 228.401)">
      <path id="Path_255" data-name="Path 255" d="M327.747,237.911a3.818,3.818,0,0,1,7.637,0" transform="translate(-327.747 -234.094)" fill="none" stroke="#171717" stroke-linecap="round" stroke-linejoin="round" stroke-width="1"/>
    </g>
    <path id="Path_256" data-name="Path 256" d="M310.581,261.519l-2.873,2.873a1.546,1.546,0,0,0,0,2.181l.045.045a1.548,1.548,0,0,0,2.181,0l2.872-2.873" transform="translate(0 -24.881)" fill="none" stroke="#171717" stroke-linecap="round" stroke-linejoin="round" stroke-width="1"/>
  </g>
</svg>
